<svg xmlns="http://www.w3.org/2000/svg" width="28" height="28"><defs><clipPath id="a"><path fill="#fff" d="M6.109 0h-.001zm-.001 0a2.548 2.548 0 011.58.57l.066.036.036.032 4.297 4.44.1.1-.032.034c.951.889.937 2.388.032 3.294l-2.146 2.152c.328.758 1.229 2.691 2.987 4.373a17.368 17.368 0 004.397 3.026l2.117-2.12.032-.034c.892-.893 2.466-.893 3.358 0l.035.068 4.364 4.37c.892.894.892 2.437 0 3.33l-3.326 3.327-.035.035-.032.032a3.863 3.863 0 01-3.728.74h-.033c-2.522-.99-7.622-3.227-12.189-7.8-4.548-4.556-6.88-9.593-7.79-12.206-.002-.006.002-.026 0-.032-.45-1.24-.128-2.672.907-3.632l-.032-.032L4.43.638l.034-.032L4.53.57A2.557 2.557 0 016.108 0zm0 2.152a.382.382 0 00-.233.101L2.617 5.581l-.034.035-.033.033c-.381.326-.5.974-.335 1.412.815 2.343 3.036 7.174 7.285 11.431 4.217 4.221 8.947 6.305 11.384 7.263.627.208 1.15.122 1.644-.304l3.291-3.295c.183-.183.183-.119 0-.302l-4.4-4.403c-.182-.183-.15-.183-.333 0L18.4 20.14l-.505.503-.671-.303s-2.945-1.246-5.442-3.53l-.233-.2c-2.593-2.479-3.828-5.785-3.828-5.785l-.237-.671.505-.472 2.687-2.69c.13-.132.059-.242.066-.236l-.032-.032-.067-.068-4.298-4.404a.39.39 0 00-.236-.101z"/></clipPath></defs><path fill="#283238" d="M6.109 0h-.001zm-.001 0a2.548 2.548 0 011.58.57l.066.036.036.032 4.297 4.44.1.1-.032.034c.951.889.937 2.388.032 3.294l-2.146 2.152c.328.758 1.229 2.691 2.987 4.373a17.368 17.368 0 004.397 3.026l2.117-2.12.032-.034c.892-.893 2.466-.893 3.358 0l.035.068 4.364 4.37c.892.894.892 2.437 0 3.33l-3.326 3.327-.035.035-.032.032a3.863 3.863 0 01-3.728.74h-.033c-2.522-.99-7.622-3.227-12.189-7.8-4.548-4.556-6.88-9.593-7.79-12.206-.002-.006.002-.026 0-.032-.45-1.24-.128-2.672.907-3.632l-.032-.032L4.43.638l.034-.032L4.53.57A2.557 2.557 0 016.108 0zm0 2.152a.382.382 0 00-.233.101L2.617 5.581l-.034.035-.033.033c-.381.326-.5.974-.335 1.412.815 2.343 3.036 7.174 7.285 11.431 4.217 4.221 8.947 6.305 11.384 7.263.627.208 1.15.122 1.644-.304l3.291-3.295c.183-.183.183-.119 0-.302l-4.4-4.403c-.182-.183-.15-.183-.333 0L18.4 20.14l-.505.503-.671-.303s-2.945-1.246-5.442-3.53l-.233-.2c-2.593-2.479-3.828-5.785-3.828-5.785l-.237-.671.505-.472 2.687-2.69c.13-.132.059-.242.066-.236l-.032-.032-.067-.068-4.298-4.404a.39.39 0 00-.236-.101z"/><path fill="none" stroke="#fff" stroke-miterlimit="50" stroke-width=".6" d="M6.109 0h-.001s0 0 0 0zm-.001 0a2.548 2.548 0 011.58.57l.066.036.036.032 4.297 4.44.1.1-.032.034c.951.889.937 2.388.032 3.294l-2.146 2.152c.328.758 1.229 2.691 2.987 4.373a17.368 17.368 0 004.397 3.026l2.117-2.12.032-.034c.892-.893 2.466-.893 3.358 0l.035.068 4.364 4.37c.892.894.892 2.437 0 3.33l-3.326 3.327-.035.035-.032.032a3.863 3.863 0 01-3.728.74h-.033c-2.522-.99-7.622-3.227-12.189-7.8-4.548-4.556-6.88-9.593-7.79-12.206-.002-.006.002-.026 0-.032-.45-1.24-.128-2.672.907-3.632l-.032-.032L4.43.638l.034-.032L4.53.57A2.557 2.557 0 016.108 0zm0 2.152a.382.382 0 00-.233.101L2.617 5.581l-.034.035-.033.033c-.381.326-.5.974-.335 1.412.815 2.343 3.036 7.174 7.285 11.431 4.217 4.221 8.947 6.305 11.384 7.263.627.208 1.15.122 1.644-.304l3.291-3.295c.183-.183.183-.119 0-.302l-4.4-4.403c-.182-.183-.15-.183-.333 0L18.4 20.14l-.505.503-.671-.303s-2.945-1.246-5.442-3.53l-.233-.2c-2.593-2.479-3.828-5.785-3.828-5.785l-.237-.671.505-.472 2.687-2.69c.13-.132.059-.242.066-.236l-.032-.032-.067-.068-4.298-4.404a.39.39 0 00-.236-.101z" clip-path="url(&quot;#a&quot;)"/></svg>