<svg xmlns="http://www.w3.org/2000/svg" viewBox="0 0 327 65"><path d="M42.6 30.4c.8-1.3 2.5-4.2 4.9-8.5 1.6-2.9 3.5-5.7 5.6-8.6 2.1-2.8 4.4-5.3 7-7.5C63 3.4 69.5 1.2 69.5.6c0-.4-.2-.6-.7-.6-1.1 0-2.8.6-5.1 1.8-2.3 1.2-4.3 2.5-6 3.9C54 8.8 50 13.2 45.6 19.1c-2.8 3.7-4.5 6-5.2 6.7-5.3 6.6-9.9 11.2-14 13.8-5.7 3.2-10.4 4.8-14.1 4.8-3 0-5.7-.9-7.9-2.7-2.2-1.8-3.3-3.9-3.3-6.3 0-2.5 1.2-4.7 3.7-6.7s5.3-3 8.5-3c3.1 0 6.1.7 8.8 2.1l1.1.7c1.4.9 2.5 2.1 3.3 3.6.3.6.6.9.9.9.3 0 .5-.2.5-.6 0-.5-.8-1.7-2.5-3.5s-2.6-2.5-2.8-2.3c-2.8-1.5-5.8-2.3-8.9-2.3-3.8 0-7.1 1.1-9.8 3.4C1.4 30 0 32.6 0 35.7c0 3.1 1.6 5.7 4.8 8 3.3 2.3 7.4 3.4 12.4 3.4 3.8 0 7.3-.8 10.5-2.4 5.5-3.3 10.4-8.1 14.9-14.3zm76.9.999c-.1 1.6-.6 3.2-1.3 4.8-.7 1.6-1.7 3-2.9 4.3-1.2 1.2-2.5 2.2-4 3-1.5.7-3 1-4.6.9-1.8-.1-3.2-.8-4.1-2-1-1.2-1.4-2.8-1.2-4.7.1-1.6.6-3.2 1.3-4.8.7-1.6 1.7-3 2.9-4.2 1.2-1.2 2.5-2.2 4-3 1.5-.7 3-1 4.6-.9 1.8.1 3.2.8 4.2 2 .9 1.1 1.3 2.7 1.1 4.6zm-3.4-.9v-1.7c0-.6-.2-1.1-.4-1.5-.2-.4-.5-.8-.9-1.1-.4-.3-.9-.5-1.5-.5-.8-.1-1.6.1-2.3.5-.7.4-1.4 1-2 1.7-.6.7-1.1 1.5-1.6 2.5-.5.9-.9 1.9-1.2 2.9-.4 1-.6 1.9-.8 2.9-.2.9-.3 1.7-.4 2.4v1.7c0 .6.2 1 .4 1.5.2.4.5.8.9 1.1.4.3.9.5 1.5.5.8.1 1.6-.1 2.3-.5.7-.4 1.4-1 2-1.7.6-.7 1.2-1.5 1.6-2.4.5-.9.9-1.9 1.2-2.8.3-1 .6-1.9.8-2.8.2-1.1.3-2 .4-2.7z"/><path d="M141 40c-.6.7-1.3 1.4-2 2.1-.7.7-1.4 1.3-2.2 1.7-.8.5-1.5.7-2.1.7-.8 0-1.3-.2-1.7-.7-.4-.4-.6-1-.6-1.8 0-.3 0-.5.1-.8 0-.3.1-.5.2-.7l2-6.2h-7.3l-3.6 9.7h-3.2l5.2-14.4c.1-.3.2-.7.3-1 .1-.3.1-.7.1-1 0-.3 0-.5-.1-.8-.1-.3-.3-.4-.6-.4-.4 0-.8.2-1.4.6-.5.4-1.1.8-1.6 1.4-.5.5-1 1.1-1.5 1.6s-.8 1-1 1.3l-.5-.5c.4-.5.8-1.2 1.5-1.9.6-.7 1.3-1.4 2-2 .7-.6 1.5-1.2 2.3-1.6.8-.4 1.5-.7 2.2-.7.7 0 1.2.3 1.5.8.3.6.4 1.1.4 1.8 0 1-.1 1.9-.4 2.8-.3.9-.5 1.8-.8 2.7h.9c1.2 0 1.6.1 2.8.2 1.1.1 2.3.3 3.4.4l3.3-8.3h3.2l-5.2 14.4-.3.9c-.1.3-.1.6-.1 1 0 .2 0 .4.1.6.1.2.3.3.5.3.4 0 .8-.2 1.3-.6.5-.4 1-.8 1.5-1.3s1-1 1.4-1.6c.4-.5.7-.9.9-1.2l.6.5c-.4.6-.9 1.3-1.5 2z"/><path d="M164.9 38.3c-.4.6-.8 1.2-1.5 1.9-.6.7-1.3 1.4-2 2-.7.6-1.5 1.2-2.3 1.6-.8.4-1.5.7-2.3.7-.4 0-.8-.1-1-.3-.3-.2-.4-.5-.6-.8-.1-.3-.2-.7-.3-1 0-.4-.1-.7-.1-1.1 0-.9.1-1.7.3-2.6.2-.8.4-1.7.6-2.5-.4.7-1 1.6-1.7 2.5-.7 1-1.5 1.9-2.4 2.7-.9.9-1.8 1.6-2.8 2.2-1 .6-1.9.9-2.8.9-.8 0-1.4-.1-2-.4-.5-.3-1-.6-1.3-1.1-.4-.5-.6-1-.8-1.6-.2-.6-.3-1.3-.3-2 0-1.1.2-2.3.5-3.5.3-1.2.8-2.4 1.4-3.5.6-1.1 1.3-2.2 2.1-3.1.8-1 1.7-1.8 2.7-2.6 1-.7 2.1-1.3 3.2-1.7 1.1-.4 2.3-.6 3.5-.6.8 0 1.6.2 2.3.5.7.3 1.2.9 1.5 1.8l1.6-1.8h2.2l-4.5 14.3c-.1.3-.2.7-.3 1-.1.3-.1.7-.1 1 0 .3 0 .5.1.8.1.3.3.4.6.4.4 0 .8-.2 1.4-.6.5-.4 1.1-.8 1.6-1.3s1-1 1.5-1.6c.5-.6.8-.9 1-1.3zM158 28c0-.6-.2-1.2-.5-1.7s-.9-.8-1.6-.8c-.9 0-1.8.2-2.7.7-.9.5-1.7 1.1-2.5 1.8-.8.8-1.5 1.6-2.1 2.6-.6 1-1.2 2-1.7 3s-.8 2-1.1 3c-.3 1-.4 1.9-.4 2.7 0 .4 0 .8.1 1.2 0 .4.2.7.3 1 .2.3.4.5.7.7.3.2.7.3 1.2.3s1.1-.2 1.8-.6c.6-.4 1.3-.9 2-1.6.7-.7 1.3-1.4 1.9-2.2.6-.8 1.2-1.6 1.8-2.5.5-.8 1-1.6 1.4-2.3.4-.7.7-1.3.8-1.8.2-.6.3-1.1.5-1.7 0-.6.1-1.2.1-1.8zM52.498 25.8c-.2.6-.5 1.3-.9 2.3-.4 1-.8 2-1.2 3.2-.4 1.2-.9 2.4-1.3 3.7-.4 1.3-.7 2.5-.9 3.6-.2 1.1-.3 2.2-.3 3.1 0 .9.2 1.6.7 2.1.4.4.9.7 1.5.7s1.2-.1 2-.6 1.6-1.1 2.3-1.9c.7-.8 1.5-1.6 2.1-2.5.7-.9 1.3-1.9 1.9-2.8.6-1 1.2-1.9 1.7-2.8.4-.6.7-.9 1-.8.3.1.3.5-.1 1.2-.9 1.5-1.6 2.8-2.3 3.9-.7 1.1-1.3 2-1.9 2.8-.6.8-1.2 1.5-1.8 2-.6.6-1.3 1.2-2 1.8-1.1 1-2.3 1.5-3.5 1.8-1.3.2-2.4.1-3.4-.5-.9-.5-1.5-1.2-1.8-2.2-.3-1-.4-2.1-.3-3.4.1-1.3.4-2.6.8-4s.9-2.8 1.4-4.2c.5-1.4 1-2.6 1.5-3.8.5-1.2.9-2.1 1.2-2.9.1-.5.5-1.3 1.1-2.6.6-1.3 1.3-2.8 2.1-4.5.8-1.7 1.7-3.5 2.8-5.4 1-1.9 2-3.6 3.1-5.3 1-1.6 2.1-3 3.1-4.1 1-1.1 1.9-1.8 2.7-2 .6-.2 1.2-.3 1.8-.4.6-.1 1-.2 1.4-.2.4 0 .5 0 .5.1s-.3.3-.9.5c-.3.1-1 .8-2 2.1-1.1 1.2-2.3 2.9-3.7 5-1.4 2.1-2.9 4.6-4.4 7.5-1.4 3-2.7 6.1-4 9.5z"/><path d="M82.6 33.9c-.5 1-1.1 2.1-1.7 3.3-.7 1.2-1.4 2.4-2.2 3.5-.8 1.1-1.7 2-2.7 2.7-1 .7-2 1.1-3.1 1.1-.7 0-1.3-.2-1.8-.5s-.9-.8-1.2-1.5c-.3-.6-.4-1.4-.4-2.4 0-.9.2-2 .6-3.1-.5.9-1.1 1.8-1.7 2.6-.6.9-1.3 1.7-2 2.4s-1.5 1.3-2.2 1.7c-.8.4-1.5.7-2.3.7-.3 0-.7 0-1.1-.1-.4-.1-.8-.2-1.1-.4-.4-.2-.7-.5-1-.8-.3-.3-.5-.8-.6-1.3-.1-.6-.1-1.2-.1-1.8.1-.6.2-1.2.5-1.7.2-.6.5-1.1.8-1.6.3-.5.6-1.1.9-1.6-.2 0-.4-.1-.6-.2-.2-.1-.2-.4 0-.8.2-.3.4-.6.5-1 .1-.4.3-.7.6-1 .6-1.1 1.2-2.3 1.8-3.4.6-1.1 2-3.4 2.5-4.2h4s-1.4 2.4-1.7 2.9c-.3.5-.7 1.2-1.1 2-.6 1-1.1 2-1.5 2.9-.4.8-.9 1.6-1.3 2.5-.4.9-.8 1.6-1 2.1-.7 1.5-1.1 2.8-1.2 3.8-.1 1 .1 1.7.5 2.1.4.4 1 .5 1.7.2.8-.3 1.6-1 2.6-2.1.9-.9 1.7-2 2.5-3.3.8-1.3 1.6-2.6 2.4-4 .8-1.4 1.5-2.7 2.2-4.1.7-1.4 2-3.8 2.6-5h4.1S78 27.4 77.7 28c-.3.6-.7 1.4-1.2 2.2-.4.8-.9 1.7-1.3 2.5-.4.9-.8 1.7-1.2 2.6-.4.8-.7 1.6-1 2.3-.3.7-.5 1.3-.5 1.8-.3 1.2-.3 2.1 0 2.7.3.5.7.8 1.1.8.7 0 1.5-.3 2.2-.9.8-.6 1.5-1.4 2.2-2.4.7-1 1.4-2 2-3.1.6-1.1 1.2-2.2 1.7-3.3.2-.5.5-.7.8-.6.3.1.4.7.1 1.3z"/><path d="M103.8 32.1c-.2 0-.3.1-.3.2-.1.1-.2.2-.3.5-.2.3-.4.6-.7 1.1-.3.5-.8 1.2-1.3 2-.9 1.3-1.7 2.4-2.4 3.2-.7.8-1.3 1.5-1.9 2-.6.5-1.1.8-1.5 1.1-.4.2-.8.3-1.2.4-.7.1-1-.2-1.1-.7-.1-.8.1-1.8.7-3s1.3-2.5 2-3.8c.8-1.3 1.4-2.6 2-3.9.6-1.3.8-2.5.7-3.5-.1-.9-.4-1.8-.9-2.4-.5-.7-1.2-.9-2.1-.8-.7.1-1.5.4-2.3 1-.8.6-1.6 1.3-2.5 2.2-.8.9-1.7 1.8-2.5 2.9-.8 1.1-1.6 2.1-2.3 3.1-.7 1-1.3 2-1.9 2.9-.4.5-.7 1-1 1.5l6.1-13.7v-.1l-3.4.2c-1 2-18.2 39.8-18.3 40.1l-.1.1 4.6-.9 4.3-10.5c1.9-4.5 3.9-8.6 5.8-12 2-3.4 3.8-6.4 5.6-8.7 1.7-2.3 3.2-4.1 4.6-5.3 1.3-1.2 2.3-1.8 2.9-1.9.3 0 .5 0 .6.1.1.1.2.3.3.6.1.6-.2 1.5-.8 2.5-.6 1-1.3 2.1-2.1 3.3-.8 1.2-1.5 2.4-2 3.8-.6 1.3-.8 2.7-.6 4 .2 1.3.5 2.3 1.1 3.1.6.7 1.4 1.1 2.4.9 1-.1 2.2-.8 3.5-2 1.3-1.2 3-3.3 4.9-6.3.4-.6.7-1.1.9-1.4.3-.3.4-.6.6-.8.1-.2.2-.3.2-.4 0-.1.1-.2 0-.3.1-.3-.1-.4-.3-.4zm108.067-7.025c.11-.11.219-.329.438-.658.22-.328.438-.767.548-1.095.11-.438.329-.986.438-1.753.11-.767.22-1.534.22-2.3V16.31h6.135v8.984h1.205v3.177h-1.096v-2.082h-7.56v2.082H211.1v-3.177h.548l.219-.22zm2.52-3.506c-.11.767-.22 1.315-.438 1.753-.22.438-.33.767-.548 1.095-.22.329-.329.548-.439.658l-.219.219h5.697v-7.998h-3.944v1.972c0 .877 0 1.643-.11 2.3z"/><path d="M211.867 25.075c.11-.11.219-.329.438-.658.22-.328.438-.767.548-1.095.11-.438.329-.986.438-1.753.11-.767.22-1.534.22-2.3V16.31h6.135v8.984h1.205v3.177h-1.096v-2.082h-7.56v2.082H211.1v-3.177h.548l.219-.22zm2.52-3.506c-.11.767-.22 1.315-.438 1.753-.22.438-.33.767-.548 1.095-.22.329-.329.548-.439.658l-.219.219h5.697v-7.998h-3.944v1.972c0 .877 0 1.643-.11 2.3zm16.765 3.725v.986h-7.012v-9.97h6.793v.986h-5.697v3.287h4.601v.986h-4.601v3.725h5.916z"/><path d="M231.152 25.294v.986h-7.012v-9.97h6.793v.986h-5.697v3.287h4.601v.986h-4.601v3.725h5.916zm7.343-8.984c.876 0 1.643.328 2.3.876.658.548.877 1.315.877 2.191 0 .877-.329 1.644-.877 2.191-.547.548-1.424.877-2.3.877h-2.74v3.725h-1.095V16.2h3.835zm-2.74 5.258h2.74c.657 0 1.205-.219 1.533-.547.33-.33.548-.877.548-1.534 0-.658-.219-1.205-.548-1.534-.328-.329-.876-.548-1.533-.548h-2.74z"/><path d="M238.495 16.31c.876 0 1.643.328 2.3.876.658.548.877 1.315.877 2.191 0 .877-.329 1.644-.877 2.191-.547.548-1.424.877-2.3.877h-2.74v3.725h-1.095V16.2h3.835zm-2.74 5.258h2.74c.657 0 1.205-.219 1.533-.547.33-.33.548-.877.548-1.534 0-.658-.219-1.205-.548-1.534-.328-.329-.876-.548-1.533-.548h-2.74zm16.647 3.726v.986h-7.012v-9.97h6.793v.986h-5.807v3.287h4.602v.986h-4.602v3.725h6.026z"/><path d="M252.402 25.294v.986h-7.012v-9.97h6.793v.986h-5.807v3.287h4.602v.986h-4.602v3.725h6.026zm9.206-4.273c.11 0 .22.11.438.22.22.109.329.328.548.437.11.22.329.439.438.767.11.329.22.658.22.986 0 .877-.33 1.534-.877 2.082-.548.548-1.315.767-2.191.767h-4.054v-9.97h3.835c.766 0 1.424.22 1.972.767.547.548.767 1.095.767 1.862 0 .33 0 .548-.11.767-.11.22-.22.439-.329.548-.11.11-.219.329-.328.329-.11.11-.22.219-.329.219l-.11.11zm-4.492-3.725v3.177h2.739c.548 0 .986-.11 1.205-.438.22-.329.438-.657.438-1.205 0-.438-.11-.877-.438-1.096-.329-.219-.767-.438-1.205-.438zm2.958 7.998c.548 0 1.096-.22 1.424-.548a1.81 1.81 0 00.548-1.315c0-.547-.219-.986-.548-1.424-.328-.438-.876-.548-1.424-.548h-2.958v3.835z"/><path d="M261.608 21.021c.11 0 .22.11.438.22.22.109.329.328.548.437.11.22.329.439.438.767.11.329.22.658.22.986 0 .877-.33 1.534-.877 2.082-.548.548-1.315.767-2.191.767h-4.054v-9.97h3.835c.766 0 1.424.22 1.972.767.547.548.767 1.095.767 1.862 0 .33 0 .548-.11.767-.11.22-.22.439-.329.548-.11.11-.219.329-.328.329-.11.11-.22.219-.329.219l-.11.11zm-4.492-3.725v3.177h2.739c.548 0 .986-.11 1.205-.438.22-.329.438-.657.438-1.205 0-.438-.11-.877-.438-1.096-.329-.219-.767-.438-1.205-.438zm2.958 7.998c.548 0 1.096-.22 1.424-.548a1.81 1.81 0 00.548-1.315c0-.547-.219-.986-.548-1.424-.328-.438-.876-.548-1.424-.548h-2.958v3.835zm15.011-.329c-.986.986-2.191 1.533-3.616 1.533-1.424 0-2.63-.547-3.615-1.533-.986-.986-1.534-2.191-1.534-3.616 0-1.424.548-2.63 1.534-3.615.986-.986 2.191-1.534 3.615-1.534 1.425 0 2.63.548 3.616 1.534.986.986 1.534 2.191 1.534 3.615 0 1.425-.548 2.63-1.534 3.616zm-6.464-.767c.767.767 1.753 1.205 2.848 1.205 1.096 0 2.082-.438 2.849-1.205.767-.767 1.205-1.753 1.205-2.958 0-1.205-.438-2.191-1.205-2.958-.767-.767-1.753-1.206-2.849-1.206-1.095 0-2.081.439-2.848 1.206-.767.767-1.205 1.753-1.205 2.958 0 1.205.438 2.19 1.205 2.958z"/><path d="M275.085 24.965c-.986.986-2.191 1.533-3.616 1.533-1.424 0-2.63-.547-3.615-1.533-.986-.986-1.534-2.191-1.534-3.616 0-1.424.548-2.63 1.534-3.615.986-.986 2.191-1.534 3.615-1.534 1.425 0 2.63.548 3.616 1.534.986.986 1.534 2.191 1.534 3.615 0 1.425-.548 2.63-1.534 3.616zm-6.464-.767c.767.767 1.753 1.205 2.848 1.205 1.096 0 2.082-.438 2.849-1.205.767-.767 1.205-1.753 1.205-2.958 0-1.205-.438-2.191-1.205-2.958-.767-.767-1.753-1.206-2.849-1.206-1.095 0-2.081.439-2.848 1.206-.767.767-1.205 1.753-1.205 2.958 0 1.205.438 2.19 1.205 2.958zm-50.403 16.543c.11 0 .22.11.438.22.22.109.329.328.548.437.11.22.329.439.438.767.11.329.22.658.22.986 0 .877-.33 1.534-.877 2.082-.548.548-1.315.767-2.191.767h-4.054v-9.97h3.835c.766 0 1.424.22 1.972.767.547.548.767 1.096.767 1.862 0 .33 0 .548-.11.767-.11.22-.22.439-.329.548-.11.11-.219.329-.328.329-.11.11-.22.219-.329.219l-.11.11zm-4.602-3.725v3.177h2.74c.547 0 .985-.11 1.205-.438.219-.329.438-.657.438-1.205 0-.438-.11-.877-.438-1.096-.33-.219-.767-.438-1.206-.438zm3.068 7.998c.548 0 1.096-.22 1.424-.548a1.81 1.81 0 00.548-1.315c0-.547-.219-.986-.548-1.424-.328-.438-.876-.548-1.424-.548h-2.958v3.835z"/><path d="M218.218 40.741c.11 0 .22.11.438.22.22.109.329.328.548.437.11.22.329.439.438.767.11.329.22.658.22.986 0 .877-.33 1.534-.877 2.082-.548.548-1.315.767-2.191.767h-4.054v-9.97h3.835c.766 0 1.424.22 1.972.767.547.548.767 1.096.767 1.862 0 .33 0 .548-.11.767-.11.22-.22.439-.329.548-.11.11-.219.329-.328.329-.11.11-.22.219-.329.219l-.11.11zm-4.602-3.725v3.177h2.74c.547 0 .985-.11 1.205-.438.219-.329.438-.657.438-1.205 0-.438-.11-.877-.438-1.096-.33-.219-.767-.438-1.206-.438zm3.068 7.998c.548 0 1.096-.22 1.424-.548a1.81 1.81 0 00.548-1.315c0-.547-.219-.986-.548-1.424-.328-.438-.876-.548-1.424-.548h-2.958v3.835zm22.248.986v-7.998L232.796 46h-.876v-9.97h1.096v8.107l6.135-8.107h.876V46z"/><path d="M238.932 46v-7.998L232.796 46h-.876v-9.97h1.096v8.107l6.135-8.107h.876V46zm5.478-9.97h1.096v4.382h5.587V36.03h1.096V46h-1.096v-4.602h-5.587V46h-1.096z"/><path d="M244.41 36.03h1.096v4.382h5.587V36.03h1.096V46h-1.096v-4.602h-5.587V46h-1.096zm18.29 0v.986h-3.177V46h-1.096v-8.984h-3.177v-.986h7.45z"/><path d="M262.7 36.03v.986h-3.177V46h-1.096v-8.984h-3.177v-.986h7.45zm10.192 8.984V46h-7.012v-9.97h6.793v.986h-5.807v3.287h4.602v.986h-4.602v3.725h6.026z"/><path d="M272.892 45.014V46h-7.012v-9.97h6.793v.986h-5.807v3.287h4.602v.986h-4.602v3.725h6.026zm7.453-8.984c.876 0 1.643.328 2.3.876.658.548.877 1.315.877 2.191 0 .877-.329 1.644-.877 2.191-.547.548-1.424.877-2.3.877h-2.74v3.725h-1.095v-9.97h3.835zm-2.74 5.258h2.74c.657 0 1.205-.219 1.533-.547.33-.33.548-.877.548-1.534 0-.658-.219-1.205-.548-1.534-.328-.329-.876-.548-1.533-.548h-2.74z"/><path d="M280.345 36.03c.876 0 1.643.328 2.3.876.658.548.877 1.315.877 2.191 0 .877-.329 1.644-.877 2.191-.547.548-1.424.877-2.3.877h-2.74v3.725h-1.095v-9.97h3.835zm-2.74 5.258h2.74c.657 0 1.205-.219 1.533-.547.33-.33.548-.877.548-1.534 0-.658-.219-1.205-.548-1.534-.328-.329-.876-.548-1.533-.548h-2.74zm9.635-5.258h1.096v3.725h2.739c.876 0 1.643.329 2.3.876.658.548.877 1.315.877 2.192 0 .876-.329 1.643-.877 2.19-.657.549-1.424.877-2.3.877h-3.835zm3.725 8.984c.657 0 1.205-.22 1.534-.548.328-.329.548-.876.548-1.534 0-.657-.22-1.205-.548-1.534-.329-.328-.877-.547-1.534-.547h-2.739v4.272h2.739z"/><path d="M287.24 36.03h1.096v3.725h2.739c.876 0 1.643.329 2.3.876.658.548.877 1.315.877 2.192 0 .876-.329 1.643-.877 2.19-.657.549-1.424.877-2.3.877h-3.835zm3.725 8.984c.657 0 1.205-.22 1.534-.548.328-.329.548-.876.548-1.534 0-.657-.22-1.205-.548-1.534-.329-.328-.877-.547-1.534-.547h-2.739v4.272h2.739zm14.027 0V46h-7.012v-9.97h6.793v.986h-5.807v3.287h4.602v.986h-4.602v3.725h6.026z"/><path d="M304.992 45.014V46h-7.012v-9.97h6.793v.986h-5.807v3.287h4.602v.986h-4.602v3.725h6.026zm7.343-8.984c.876 0 1.643.328 2.3.876.658.548.877 1.315.877 2.191 0 .877-.329 1.644-.877 2.191-.547.548-1.424.877-2.3.877h-2.74v3.725H308.5v-9.97h3.835zm-2.74 5.258h2.74c.657 0 1.205-.219 1.533-.547.33-.33.548-.877.548-1.534 0-.658-.219-1.205-.548-1.534-.328-.329-.876-.548-1.533-.548h-2.74z"/><path d="M312.335 36.03c.876 0 1.643.328 2.3.876.658.548.877 1.315.877 2.191 0 .877-.329 1.644-.877 2.191-.547.548-1.424.877-2.3.877h-2.74v3.725H308.5v-9.97h3.835zm-2.74 5.258h2.74c.657 0 1.205-.219 1.533-.547.33-.33.548-.877.548-1.534 0-.658-.219-1.205-.548-1.534-.328-.329-.876-.548-1.533-.548h-2.74zm16.647 3.726V46h-7.012v-9.97h6.793v.986h-5.807v3.287h4.602v.986h-4.602v3.725h6.026z"/><path d="M326.242 45.014V46h-7.012v-9.97h6.793v.986h-5.807v3.287h4.602v.986h-4.602v3.725h6.026z"/></svg>